<?xml version="1.0" encoding="UTF-8"?>
<!DOCTYPE svg PUBLIC "-//W3C//DTD SVG 1.1//EN" "http://www.w3.org/Graphics/SVG/1.1/DTD/svg11.dtd">
<!-- Creator: CorelDRAW X6 -->
<svg xmlns="http://www.w3.org/2000/svg" xml:space="preserve" width="21.3744mm" height="21.3744mm" version="1.1" style="shape-rendering:geometricPrecision; text-rendering:geometricPrecision; image-rendering:optimizeQuality; fill-rule:evenodd; clip-rule:evenodd"
viewBox="0 0 540 540"
 xmlns:xlink="http://www.w3.org/1999/xlink">
 <defs>
  <style type="text/css">
   <![CDATA[
    .fil1 {fill:none}
    .fil0 {fill:#FFCA2C;fill-rule:nonzero}
   ]]>
  </style>
 </defs>
 <g id="Layer_x0020_1">
  <metadata id="CorelCorpID_0Corel-Layer"/>
  <path class="fil0" d="M385 40l0 107 -113 0c-18,0 -28,6 -29,19 2,12 10,22 24,31 28,18 52,33 70,47 18,13 33,27 44,40 12,13 20,26 26,40 6,14 8,29 8,46 0,13 -1,26 -4,39 -7,29 -23,51 -48,68 -25,17 -60,25 -103,25l-131 0 0 -107 115 0c16,0 28,-2 35,-7 8,-5 12,-10 12,-17 0,-11 -5,-19 -14,-26 -12,-9 -30,-24 -55,-42 -25,-19 -44,-34 -57,-46 -12,-12 -22,-25 -30,-40 -7,-15 -11,-32 -11,-52 0,-7 1,-15 2,-24 3,-19 10,-36 22,-52 12,-15 27,-28 46,-36 19,-9 39,-13 61,-13l130 0z"/>
  <circle class="fil1" cx="270" cy="270" r="270"/>
 </g>
</svg>
