<?xml version="1.0" encoding="UTF-8"?>
<!DOCTYPE svg PUBLIC "-//W3C//DTD SVG 1.1//EN" "http://www.w3.org/Graphics/SVG/1.1/DTD/svg11.dtd">
<!-- Creator: CorelDRAW X6 -->
<svg xmlns="http://www.w3.org/2000/svg" xml:space="preserve" width="124.292mm" height="18.6531mm" version="1.1" style="shape-rendering:geometricPrecision; text-rendering:geometricPrecision; image-rendering:optimizeQuality; fill-rule:evenodd; clip-rule:evenodd"
viewBox="0 0 9995 1500"
 xmlns:xlink="http://www.w3.org/1999/xlink">
 <defs>
  <style type="text/css">
   <![CDATA[
    .fil1 {fill:#95A0AB;fill-rule:nonzero}
    .fil0 {fill:#FFCA2C;fill-rule:nonzero}
   ]]>
  </style>
 </defs>
 <g id="Layer_x0020_1">
  <metadata id="CorelCorpID_0Corel-Layer"/>
  <path class="fil0" d="M828 0l0 339 -360 0c-58,0 -89,20 -94,61 5,37 31,70 77,99 91,56 165,106 222,149 57,43 104,85 141,126 37,41 64,83 82,127 18,44 27,92 27,146 0,40 -4,82 -13,125 -21,91 -72,164 -152,216 -81,53 -189,79 -327,79l-416 0 0 -339 364 0c50,0 88,-7 113,-22 25,-15 38,-33 38,-55 0,-34 -15,-61 -44,-82 -37,-30 -95,-75 -175,-135 -81,-60 -141,-108 -180,-145 -39,-37 -71,-79 -94,-126 -24,-47 -36,-102 -36,-165 0,-23 2,-48 6,-76 9,-60 33,-115 71,-165 38,-49 86,-88 146,-116 59,-28 123,-41 193,-41l412 0zm579 0l0 755c13,3 22,5 28,5 36,0 66,-17 89,-50 23,-33 43,-73 59,-119 16,-46 32,-94 51,-145l342 0 -86 244c-20,58 -41,103 -63,133 -22,31 -51,49 -85,55 92,26 153,63 182,113 29,50 44,116 44,201l0 274 -324 0 0 -261c0,-49 -12,-84 -36,-106 -24,-22 -54,-32 -89,-32l-111 0 0 400 -335 0 0 -1466 335 0zm1029 450l0 584c0,44 11,79 32,105 22,25 48,39 78,42 35,-2 64,-16 88,-43 24,-27 36,-62 36,-108l0 -579 322 0 0 605c0,69 -16,137 -48,205 -32,68 -81,123 -146,167 -66,44 -145,66 -238,66 -137,-2 -245,-44 -324,-125 -78,-81 -118,-188 -118,-320l0 -597 318 0zm1324 -8l0 301 -257 0 0 724 -335 0 0 -1084c0,-82 17,-152 51,-210 34,-58 81,-101 139,-129 58,-29 123,-43 195,-43l207 0 0 301 -146 0c-45,0 -75,12 -90,35 -14,24 -22,59 -22,105l257 0zm695 0l0 301 -257 0 0 724 -335 0 0 -1084c0,-82 17,-152 51,-210 34,-58 81,-101 139,-129 58,-29 123,-43 195,-43l207 0 0 301 -146 0c-45,0 -75,12 -90,35 -14,24 -22,59 -22,105l257 0zm1088 305l-508 347 -126 -199 274 -180c-5,-2 -16,-7 -31,-14 -15,-8 -30,-13 -45,-17 -14,-4 -33,-6 -56,-6 -62,4 -113,33 -153,86 -39,53 -59,113 -59,180 3,88 29,150 77,189 48,39 97,60 147,64 58,0 113,-19 166,-56 53,-38 99,-93 138,-167l241 121c-46,98 -100,177 -165,236 -65,59 -130,100 -198,124 -67,24 -135,36 -202,38 -94,0 -182,-25 -264,-76 -81,-51 -146,-116 -194,-195 -48,-79 -73,-159 -74,-238 3,-9 4,-16 4,-21 6,-107 30,-196 71,-268 41,-72 91,-127 148,-166 58,-38 113,-65 168,-80 54,-15 101,-22 140,-22 92,0 182,23 270,69 88,46 165,130 230,253zm1282 -747l0 951c0,177 -56,313 -167,408 -115,94 -244,141 -387,141 -93,0 -180,-20 -261,-58 -81,-39 -144,-84 -188,-134 -34,-41 -64,-96 -90,-164 -26,-68 -40,-137 -42,-209 4,-95 30,-182 78,-260 48,-78 113,-139 194,-184 81,-45 170,-67 267,-67 46,0 102,8 167,25l0 305c-41,-20 -85,-29 -134,-29 -69,0 -126,22 -170,66 -44,44 -67,100 -70,169 3,65 28,118 74,159 46,41 103,64 171,68 66,-2 120,-27 163,-76 44,-48 65,-117 65,-207l0 -906 331 0z"/>
  <path class="fil1" d="M7123 1372l328 0c3,0 6,1 10,3 50,-5 76,-24 78,-59 1,-29 -14,-50 -44,-62 -30,-12 -92,-32 -185,-61 -64,-23 -111,-48 -141,-75 -30,-27 -45,-64 -46,-112 -3,-64 18,-110 63,-136 45,-26 98,-39 160,-39l282 0 0 114 -305 0c-53,0 -78,20 -75,59 1,14 7,25 19,35 12,10 29,19 51,28 22,9 43,15 62,20 19,5 41,10 65,16 149,42 221,112 215,210 -8,113 -79,170 -212,170l-41 0 -285 0 0 -112zm640 -93l0 -615 118 0 0 166 234 0 0 114 -234 0 0 358c0,17 7,33 22,46 15,14 36,20 64,20l148 0 0 114 -151 0c-69,0 -120,-20 -153,-59 -33,-39 -49,-88 -49,-146zm408 -131c1,-64 18,-121 50,-171 33,-50 75,-90 127,-120 52,-29 106,-43 160,-42 57,2 112,15 164,41 52,25 95,63 129,114 34,50 50,111 50,180 0,51 -12,103 -36,156 -24,53 -61,97 -110,133 -49,35 -107,54 -172,57 -104,4 -191,-28 -259,-96 -69,-68 -104,-150 -106,-247 2,-2 3,-3 3,-4 0,-1 0,-1 0,-1zm125 -3c0,64 17,120 52,167 35,47 91,70 168,69 41,0 77,-8 109,-25 32,-16 57,-43 74,-79 18,-36 26,-83 25,-139 -2,-43 -12,-80 -31,-111 -19,-31 -44,-56 -76,-73 -32,-17 -68,-26 -107,-26 -68,1 -121,23 -157,67 -37,44 -56,93 -58,148zm658 -316l114 0 0 76c16,-26 39,-48 68,-65 29,-17 63,-25 102,-25l37 0 0 114 -29 0c-61,0 -104,22 -131,66 -26,44 -40,92 -42,144l0 343 -120 0 0 -654zm524 342l325 -180c-41,-41 -92,-61 -153,-61 -66,0 -119,24 -158,71 -39,47 -56,103 -52,166 3,59 23,110 61,153 38,43 89,64 154,63 66,-1 116,-19 149,-53 33,-34 56,-85 69,-153l120 16c-2,45 -16,91 -42,138 -26,47 -66,86 -118,118 -52,32 -114,49 -186,50 -58,0 -113,-15 -164,-45 -51,-30 -92,-70 -123,-121 -30,-51 -46,-105 -46,-162 -3,-114 31,-202 101,-263 70,-61 148,-92 234,-92 74,0 137,17 189,51 51,34 95,86 131,156l-441 245 -52 -97z"/>
 </g>
</svg>
